<?xml version="1.0" encoding="utf-8"?>
<!-- Generator: Adobe Illustrator 19.1.0, SVG Export Plug-In . SVG Version: 6.00 Build 0)  -->
<svg version="1.1" id="Layer_1" xmlns="http://www.w3.org/2000/svg" xmlns:xlink="http://www.w3.org/1999/xlink" x="0px" y="0px"
	 viewBox="-212 274 175 54" style="enable-background:new -212 274 175 54;" xml:space="preserve">
<g id="Layer_1_1_">
</g>
<g id="Layer_1_2_">
</g>
<g>
	<g>
		<g>
			<path d="M-41,274c2.2,0,4,1.8,4,4v46c0,2.2-1.8,4-4,4h-167c-2.2,0-4-1.8-4-4v-46c0-2.2,1.8-4,4-4"/>
		</g>
	</g>
	<g>
		<path style="fill:#FFFFFF;" d="M-156.5,286.8c2.6,0,4.5,1.8,4.5,4.2c0,2.4-1.9,4.2-4.5,4.2h-3.5v-8.4H-156.5z M-158.6,294h2.1
			c1.7,0,3-1.2,3-2.9c0-1.7-1.3-3-3-3h-2.1V294z"/>
		<path style="fill:#FFFFFF;" d="M-144.3,292c0,1.9-1.4,3.3-3.4,3.3c-2,0-3.4-1.3-3.4-3.3c0-1.9,1.4-3.3,3.4-3.3
			C-145.7,288.8-144.3,290.1-144.3,292z M-149.8,292c0,1.2,0.8,2.1,2,2.1c1.2,0,2-0.8,2-2.1c0-1.2-0.8-2.1-2-2.1
			C-148.9,290-149.8,290.8-149.8,292z"/>
		<path style="fill:#FFFFFF;" d="M-137,295.2l-1.7-4.7l-1.7,4.7h-1.5l-2.4-6.4h1.5l1.7,5l1.6-5h1.5l1.7,5l1.7-5h1.4l-2.4,6.4H-137z"
			/>
		<path style="fill:#FFFFFF;" d="M-125.8,291.2v4h-1.4v-3.6c0-1-0.6-1.6-1.6-1.6c-1.1,0-1.8,0.7-1.9,1.7v3.4h-1.4v-6.4h1.4v1.2
			c0.5-0.9,1.3-1.3,2.4-1.3C-126.7,288.8-125.8,289.7-125.8,291.2z"/>
		<path style="fill:#FFFFFF;" d="M-123.8,295.2v-8.9h1.4v8.9H-123.8z"/>
		<path style="fill:#FFFFFF;" d="M-114.1,292c0,1.9-1.4,3.3-3.4,3.3c-2,0-3.4-1.3-3.4-3.3c0-1.9,1.4-3.3,3.4-3.3
			C-115.4,288.8-114.1,290.1-114.1,292z M-119.5,292c0,1.2,0.8,2.1,2,2.1c1.2,0,2-0.8,2-2.1c0-1.2-0.8-2.1-2-2.1
			C-118.6,290-119.5,290.8-119.5,292z"/>
		<path style="fill:#FFFFFF;" d="M-108.7,294.5c-0.5,0.6-1.2,0.8-2.2,0.8c-1.4,0-2.3-0.9-2.3-2c0-1.2,0.9-1.9,2.5-1.9h2v-0.2
			c0-0.8-0.5-1.3-1.6-1.3c-0.6,0-1.3,0.2-1.9,0.7l-0.6-1c0.9-0.5,1.6-0.8,2.8-0.8c1.7,0,2.6,0.8,2.6,2.3l0,4.2h-1.4V294.5z
			 M-108.7,293v-0.6h-1.8c-0.9,0-1.4,0.2-1.4,0.9c0,0.6,0.5,1,1.3,1C-109.5,294.2-108.7,293.7-108.7,293z"/>
		<path style="fill:#FFFFFF;" d="M-99.1,295.2h-1.4v-1.1c-0.5,0.7-1.3,1.2-2.3,1.2c-1.9,0-3.1-1.3-3.1-3.3c0-1.9,1.3-3.2,3.1-3.2
			c1.1,0,1.8,0.4,2.3,1.2v-3.6h1.4V295.2z M-100.6,292.1c0-1.2-0.8-2.1-2-2.1s-2,0.9-2,2.1c0,1.2,0.8,2.1,2,2.1
			C-101.4,294.1-100.6,293.3-100.6,292.1z"/>
		<path style="fill:#FFFFFF;" d="M-87.6,292c0,1.9-1.4,3.3-3.4,3.3c-2,0-3.4-1.3-3.4-3.3c0-1.9,1.4-3.3,3.4-3.3
			C-89,288.8-87.6,290.1-87.6,292z M-93,292c0,1.2,0.8,2.1,2,2.1c1.2,0,2-0.8,2-2.1c0-1.2-0.8-2.1-2-2.1C-92.2,290-93,290.8-93,292z
			"/>
		<path style="fill:#FFFFFF;" d="M-79.9,291.2v4h-1.4v-3.6c0-1-0.6-1.6-1.6-1.6c-1.1,0-1.8,0.7-1.9,1.7v3.4h-1.4v-6.4h1.4v1.2
			c0.5-0.9,1.3-1.3,2.4-1.3C-80.8,288.8-79.9,289.7-79.9,291.2z"/>
	</g>
	<g>
		<g>
			<g>
				<path style="fill:#FFFFFF;" d="M-172.5,308.8c-0.8,1.7-1.1,2.4-2.1,4c-1.3,2.1-3.3,4.7-5.7,4.7c-2.1,0-2.6-1.4-5.6-1.3
					c-2.9,0-3.5,1.4-5.6,1.3c-2.4,0-4.2-2.4-5.6-4.5c-3.9-5.8-4.3-12.7-1.9-16.3c1.7-2.6,4.3-4.1,6.8-4.1c2.5,0,4.2,1.4,6.3,1.4
					c2.1,0,3.3-1.4,6.2-1.4c2.2,0,4.6,1.2,6.3,3.3C-178.9,298.9-178,306.7-172.5,308.8z"/>
				<g>
					<path style="fill:#FFFFFF;" d="M-182,290.2c1.1-1.3,1.9-3.3,1.5-5.3c-1.8,0.1-3.8,1.2-5,2.6c-1.1,1.3-2,3.3-1.7,5.2
						C-185.1,292.8-183.1,291.7-182,290.2z"/>
				</g>
			</g>
		</g>
	</g>
	<g style="enable-background:new    ;">
		<path style="fill:#FFFFFF;" d="M-156.5,313.3l-0.9,2.1h-2.9l4.9-11.2h2.9l4.8,11.2h-3l-0.8-2.1H-156.5z M-154,306.9l-1.6,4.1h3.3
			L-154,306.9z"/>
		<path style="fill:#FFFFFF;" d="M-141.8,304.1c2.8,0,4.6,1.4,4.6,3.9c0,2.6-1.6,4.1-4.6,4.1h-2.1v3.2h-2.8v-11.2H-141.8z
			 M-143.7,309.9h1.9c1.3,0,2-0.7,2-1.9c0-1.2-0.8-1.7-2-1.7h-1.9V309.9z"/>
		<path style="fill:#FFFFFF;" d="M-130.8,304.1c2.8,0,4.6,1.4,4.6,3.9c0,2.6-1.6,4.1-4.6,4.1h-2.1v3.2h-2.8v-11.2H-130.8z
			 M-132.8,309.9h1.9c1.3,0,2-0.7,2-1.9c0-1.2-0.8-1.7-2-1.7h-1.9V309.9z"/>
		<path style="fill:#FFFFFF;" d="M-112.3,305.3l-1.1,2.3c-1.2-0.7-2.7-1.2-3.6-1.2c-0.8,0-1.2,0.3-1.2,0.9c0,2,6,0.9,6,4.9
			c0,2.3-2,3.5-4.5,3.5c-1.9,0-3.8-0.8-5.1-1.9l1.1-2.2c1.2,1,2.9,1.7,4,1.7c0.9,0,1.4-0.3,1.4-1c0-2-6-0.8-6-4.8
			c0-2.1,1.7-3.4,4.5-3.4C-115.1,304-113.5,304.5-112.3,305.3z"/>
		<path style="fill:#FFFFFF;" d="M-105.4,306.3v8.9h-2.8v-8.9h-3.4v-2.3h9.6v2.3H-105.4z"/>
		<path style="fill:#FFFFFF;" d="M-89.9,309.7c0,3.3-2.6,5.8-6.1,5.8c-3.5,0-6.1-2.5-6.1-5.8c0-3.3,2.6-5.7,6.1-5.7
			C-92.5,304-89.9,306.5-89.9,309.7z M-99.2,309.7c0,1.9,1.4,3.4,3.2,3.4c1.7,0,3.2-1.4,3.2-3.4c0-1.9-1.4-3.4-3.2-3.4
			C-97.8,306.3-99.2,307.8-99.2,309.7z"/>
		<path style="fill:#FFFFFF;" d="M-83.3,312.1L-83.3,312.1h-2.3v3.2h-2.8v-11.2h5c2.9,0,4.7,1.4,4.7,3.9c0,1.7-0.8,2.9-2.1,3.6
			l2.4,3.7h-3.3L-83.3,312.1z M-83.4,309.9c1.2,0,2-0.7,2-1.9c0-1.2-0.8-1.7-2-1.7h-2.2v3.6H-83.4z"/>
		<path style="fill:#FFFFFF;" d="M-73.9,306.3v2.3h5.3v2.3h-5.3v2.3h6.1v2.3h-9v-11.2h8.8v2.3h-5.9L-73.9,306.3L-73.9,306.3z"/>
	</g>
	<g>
		<path style="fill:#FFFFFF;" d="M-71.2,294.9c-0.5,0.3-1.1,0.5-1.6,0.5c-1,0-1.8-0.6-1.8-1.9V290h-0.9V289h0.9v-1.8h1.4v1.8h1.9
			v1.1h-1.9v3.2c0,0.7,0.3,0.9,0.7,0.9c0.3,0,0.6-0.1,1-0.3L-71.2,294.9z"/>
		<path style="fill:#FFFFFF;" d="M-63.5,291.2v4.1h-1.4v-3.7c0-1-0.6-1.6-1.6-1.6c-1.2,0-1.9,0.9-1.9,2.1v3.2h-1.4v-9.2h1.4v3.9
			c0.5-0.9,1.3-1.3,2.4-1.3C-64.4,288.7-63.5,289.6-63.5,291.2z"/>
		<path style="fill:#FFFFFF;" d="M-55.7,292.6h-5c0.2,1,1,1.6,2,1.6c0.7,0,1.4-0.3,1.9-0.8l0.8,0.8c-0.6,0.7-1.6,1.1-2.7,1.1
			c-2,0-3.4-1.4-3.4-3.3c0-2,1.4-3.3,3.3-3.4C-56.5,288.7-55.6,290.2-55.7,292.6z M-57,291.5c0-1.1-0.8-1.7-1.8-1.7
			c-1,0-1.8,0.7-1.9,1.7H-57z"/>
	</g>
</g>
</svg>
