<?xml version="1.0" encoding="UTF-8" standalone="no"?>
<svg width="38px" height="38px" viewBox="0 0 38 38" version="1.1" xmlns="http://www.w3.org/2000/svg" xmlns:xlink="http://www.w3.org/1999/xlink" xmlns:sketch="http://www.bohemiancoding.com/sketch/ns">
    <!-- Generator: Sketch 3.3 (11970) - http://www.bohemiancoding.com/sketch -->
    <title>blog_contact_colour</title>
    <desc>Created with Sketch.</desc>
    <defs></defs>
    <g id="Page-1" stroke="none" stroke-width="1" fill="none" fill-rule="evenodd" sketch:type="MSPage">
        <g id="blog_contact_colour" sketch:type="MSArtboardGroup">
            <g id="contact_us_page_fb_hover" sketch:type="MSLayerGroup" transform="translate(1.000000, 1.000000)">
                <g id="contact_x5F_us_x5F_page_x5F_fb_x5F_hover" sketch:type="MSShapeGroup">
                    <g id="Group">
                        <circle id="Oval" fill="#0BE370" cx="18" cy="18" r="17.499"></circle>
                        <g id="Group-Copy-2" transform="translate(7.500000, 9.000000)" fill="#FFFFFF">
                            <path d="M20.7699906,3.23459434 C20.7660283,3.23142453 20.7628585,3.22726415 20.7579057,3.22488679 L20.7507736,3.22132075 L14.4963396,0.0941037736 C14.4541415,0.0729056604 14.4097642,0.0586415094 14.3647925,0.0471509434 C14.3083302,0.0326886792 14.2506792,0.0237735849 14.1928302,0.0237735849 C13.9533113,0.0237735849 13.7149811,0.144028302 13.5858113,0.353632075 L9.98510377,6.20510377 L14.5038679,13.5479717 L20.7892075,3.3344434 C20.8100094,3.30036792 20.8001038,3.25836792 20.7699906,3.23459434" id="Fill-53"></path>
                            <path d="M8.00179245,4.87219811 L8.00179245,11.5329623 L13.9222075,14.4931698 L8.00179245,4.87219811" id="Fill-54"></path>
                            <path d="M14.8117358,14.937934 L19.6851226,17.3745283 C20.319283,17.6917075 20.8333868,17.4696226 20.8333868,16.8788491 L20.8333868,5.15272642 L14.8117358,14.937934" id="Fill-55"></path>
                            <path d="M6.97398113,3.24410377 L0.865556604,0.189792453 C0.755207547,0.134716981 0.650207547,0.108566038 0.555113208,0.108566038 C0.287660377,0.108566038 0.10004717,0.31559434 0.10004717,0.662886792 L0.10004717,13.851283 C0.10004717,14.2043208 0.358386792,14.6223396 0.674179245,14.7802358 L6.05433962,17.470217 C6.19222642,17.5391604 6.32357547,17.5718491 6.44224528,17.5718491 C6.77666038,17.5718491 7.01122642,17.3131132 7.01122642,16.8788491 L7.01122642,3.30413208 C7.01122642,3.27877358 6.99676415,3.25539623 6.97398113,3.24410377" id="Fill-56"></path>
                        </g>
                    </g>
                </g>
                <g id="Layer_1"></g>
            </g>
        </g>
    </g>
</svg>