<?xml version="1.0" encoding="UTF-8" standalone="no"?>
<svg width="38px" height="38px" viewBox="0 0 38 38" version="1.1" xmlns="http://www.w3.org/2000/svg" xmlns:xlink="http://www.w3.org/1999/xlink" xmlns:sketch="http://www.bohemiancoding.com/sketch/ns">
    <!-- Generator: Sketch 3.3 (11970) - http://www.bohemiancoding.com/sketch -->
    <title>closet_contact_colour</title>
    <desc>Created with Sketch.</desc>
    <defs></defs>
    <g id="Page-1" stroke="none" stroke-width="1" fill="none" fill-rule="evenodd" sketch:type="MSPage">
        <g id="closet_contact_colour" sketch:type="MSArtboardGroup">
            <g id="contact_us_page_fb_hover" sketch:type="MSLayerGroup" transform="translate(1.000000, 1.000000)">
                <g id="contact_x5F_us_x5F_page_x5F_fb_x5F_hover" sketch:type="MSShapeGroup">
                    <g id="Group">
                        <circle id="Oval" fill="#41434C" cx="18" cy="18" r="17.499"></circle>
                        <g id="Imported-Layers" transform="translate(7.500000, 7.937500)" stroke="#FFFFFF" stroke-width="0.4" fill="#FFFFFF">
                            <path d="M15.1273448,16.2843407 C15.0061525,16.2843407 14.8843738,16.2444645 14.7840969,16.1645167 L9.91275132,12.2873392 C9.78158993,12.1825665 9.70516057,12.0242346 9.70516057,11.8561291 C9.70516057,11.6882191 9.78158993,11.5296917 9.91275132,11.4249189 L19.644887,3.6764282 C19.8104513,3.5446804 20.0370028,3.5192691 20.2273921,3.61114071 C20.4177813,3.70281685 20.5389737,3.89594271 20.5389737,4.10744288 L20.5389737,11.8561291 C20.5389737,12.0236482 20.4627398,12.1821756 20.3319693,12.2869483 L15.4707883,16.1641257 C15.3705114,16.2442691 15.2489281,16.2843407 15.1273448,16.2843407 M11.1405079,11.8561291 L15.1269539,15.0288272 L19.4372962,11.5906788 L19.4372962,5.25016934 L11.1405079,11.8561291" id="Fill-1"></path>
                            <path d="M10.4063169,19.6640432 L10.3187456,19.6640432 C9.90747359,19.6640432 9.50968906,19.5227173 9.15060789,19.2435839 L5.16083886,16.0753817 C5.02928653,15.9711954 4.95246623,15.812277 4.95246623,15.6445625 C4.95246623,15.4766524 5.02889559,15.3179296 5.16005697,15.2133523 L10.0218244,11.3379341 C10.216905,11.1823388 10.5255545,11.1823388 10.7206351,11.3379341 L15.5790795,15.2133523 C15.7102409,15.3179296 15.7862793,15.4770434 15.7862793,15.6445625 C15.7862793,15.812277 15.7096545,15.9711954 15.5782976,16.0753817 L11.595761,19.2400655 C11.2302293,19.5227173 10.8320538,19.6640432 10.4063169,19.6640432 M6.38820448,15.6431942 L9.83104423,18.3770587 C9.99778143,18.5062654 10.1643232,18.5682299 10.3525622,18.5617793 C10.5671899,18.5737031 10.7458509,18.5041152 10.9157156,18.3731493 L14.350932,15.6431942 L10.371132,12.4685413 L6.38820448,15.6431942" id="Fill-2"></path>
                            <path d="M15.1271494,8.53350433 C15.0055661,8.53350433 14.8843738,8.49343267 14.7839014,8.41309388 L9.92252489,4.53943492 C9.79136351,4.43485766 9.71493415,4.2761348 9.71493415,4.10822477 C9.71493415,3.94070568 9.79155898,3.78198281 9.92291584,3.67760103 L13.8984154,0.514871963 C14.2815396,0.21716885 14.7068856,0.072519931 15.1439599,0.0891350095 C15.5507361,0.0699788013 15.9811644,0.22107828 16.3535376,0.511158004 C16.3552969,0.512330833 16.3566652,0.513699134 16.3584244,0.514871963 L20.3292327,3.6764282 C20.4605896,3.78120093 20.5370189,3.93972832 20.5370189,4.10724741 C20.5370189,4.27515744 20.4605896,4.43368484 20.3296237,4.53826209 L15.4707883,8.41309388 C15.3703159,8.49343267 15.2487327,8.53350433 15.1271494,8.53350433 M11.1502815,4.10900665 L15.1271494,7.27818628 L19.1018671,4.10783382 L15.6748605,1.37924699 C15.503432,1.24652183 15.3320035,1.18416642 15.1443509,1.19022604 C14.920536,1.19022604 14.7520395,1.24710825 14.5790473,1.38100623 L11.1502815,4.10900665" id="Fill-3"></path>
                            <path d="M5.73865265,8.53350433 C5.61706937,8.53350433 5.49587703,8.49343267 5.39540467,8.41309388 L0.534028171,4.53943492 C0.402866786,4.43485766 0.326437425,4.2761348 0.326437425,4.10822477 C0.326437425,3.94070568 0.302589901,3.68111951 0.433751285,3.5769332 L4.50991873,0.514871963 C4.89304289,0.21716885 5.31623871,0.072519931 5.7554632,0.0891350095 C6.1630213,0.0699788013 6.59227674,0.22107828 6.96504092,0.511158004 C6.96680016,0.512330833 6.96816846,0.513699134 6.9699277,0.514871963 L10.940736,3.6764282 C11.0722883,3.78120093 11.1485222,3.93972832 11.1485222,4.10724741 C11.1485222,4.27515744 11.0722883,4.43368484 10.9411269,4.53826209 L6.08229157,8.41309388 C5.98181921,8.49343267 5.86023593,8.53350433 5.73865265,8.53350433 M1.76178474,4.10900665 L5.73865265,7.27818628 L9.71337038,4.10783382 L6.28636383,1.37924699 C6.11493531,1.24652183 5.94741622,1.18416642 5.75585414,1.19022604 C5.53790341,1.19022604 5.36315188,1.24710825 5.19055053,1.38100623 L1.76178474,4.10900665" id="Fill-4"></path>
                            <path d="M5.52461134,16.2843407 C5.40302806,16.2843407 5.28144478,16.2442691 5.18097243,16.1641257 L0.319595922,12.2869483 C0.188630009,12.1821756 0.112200648,12.0238436 0.112200648,11.8561291 L0.112200648,4.10744288 C0.112200648,3.89574723 0.233392985,3.70281685 0.42397771,3.61133618 C0.613976019,3.5192691 0.84033203,3.5446804 1.00648282,3.6764282 L10.7386185,11.4249189 C10.8697798,11.5296917 10.9462092,11.6882191 10.9462092,11.8561291 C10.9462092,12.0242346 10.8697798,12.1825665 10.7386185,12.2871438 L5.86785932,16.1643212 C5.76738696,16.2444645 5.64580368,16.2843407 5.52461134,16.2843407 M1.21407356,11.5908742 L5.52480682,15.0290227 L9.51086189,11.8561291 L1.21407356,5.25016934 L1.21407356,11.5908742" id="Fill-5"></path>
                        </g>
                    </g>
                </g>
                <g id="Layer_1"></g>
            </g>
        </g>
    </g>
</svg>