<?xml version="1.0" encoding="UTF-8" standalone="no"?>
<svg width="36px" height="36px" viewBox="0 0 36 36" version="1.1" xmlns="http://www.w3.org/2000/svg" xmlns:xlink="http://www.w3.org/1999/xlink" xmlns:sketch="http://www.bohemiancoding.com/sketch/ns">
    <!-- Generator: Sketch 3.3 (11970) - http://www.bohemiancoding.com/sketch -->
    <title>contact_us_page_fb_hover</title>
    <desc>Created with Sketch.</desc>
    <defs></defs>
    <g id="Page-1" stroke="none" stroke-width="1" fill="none" fill-rule="evenodd" sketch:type="MSPage">
        <g id="blog_contact-copy-2" sketch:type="MSArtboardGroup" transform="translate(-1.000000, -1.000000)">
            <g id="contact_us_page_fb_hover" sketch:type="MSLayerGroup" transform="translate(1.000000, 1.000000)">
                <g id="contact_x5F_us_x5F_page_x5F_fb_x5F_hover" sketch:type="MSShapeGroup">
                    <g id="Group">
                        <circle id="Oval" fill="#CC4A41" cx="18" cy="18" r="17.499"></circle>
                        <g id="Fill-20-+-Fill-21" transform="translate(6.500000, 10.558824)" fill="#FFFFFF">
                            <path d="M0.0299247312,7.13791398 C0.0924946237,3.39435484 3.53408602,0.115989247 7.27764516,0.24088172 C9.07139785,0.157537634 10.7575699,0.938053763 12.1313871,2.0343871 C11.5450108,2.70064516 10.9378602,3.34241935 10.2891613,3.94264516 C8.6376129,2.80130108 6.28889247,2.47509677 4.63734409,3.79351613 C2.27477419,5.42750538 2.16719355,9.28556989 4.43974194,11.0444516 C6.64972043,13.0499032 10.8268172,12.0542258 11.4374301,8.98360215 C10.0532258,8.96282796 8.66531183,8.98360215 7.28110753,8.9385914 C7.27764516,8.1128172 7.2741828,7.28704301 7.27764516,6.46151613 C9.59174194,6.4545914 11.9058387,6.45088172 14.2233978,6.46844086 C14.3621398,8.41132258 14.1054301,10.4790968 12.9119032,12.0853871 C11.1043011,14.6284946 7.47549462,15.3709247 4.64426882,14.2815161 C1.80290323,13.1990323 -0.209473118,10.1979032 0.0299247312,7.13791398" id="Fill-20"></path>
                            <path d="M18.737086,4.3761828 L20.8013978,4.3761828 C20.8048602,5.06667742 20.8083226,5.76063441 20.8152473,6.45088172 C21.5057419,6.45805376 22.1996989,6.45805376 22.8899462,6.46497849 L22.8899462,8.52929032 C22.1996989,8.53621505 21.5092043,8.53967742 20.8152473,8.54660215 C20.8083226,9.24031183 20.8048602,9.93080645 20.8013978,10.6213011 L18.7336237,10.6213011 C18.7266989,9.93080645 18.7266989,9.24031183 18.7197742,8.55006452 C18.0292796,8.54313978 17.3355699,8.53621505 16.6450753,8.52929032 L16.6450753,6.46497849 C17.3355699,6.45805376 18.0258172,6.4545914 18.7197742,6.45088172 C18.7232366,5.75717204 18.7301613,5.06667742 18.737086,4.3761828" id="Fill-21"></path>
                        </g>
                    </g>
                </g>
                <g id="Layer_1"></g>
            </g>
        </g>
    </g>
</svg>