<?xml version="1.0" encoding="iso-8859-1"?>
<!-- Generator: Adobe Illustrator 16.0.0, SVG Export Plug-In . SVG Version: 6.00 Build 0)  -->
<!DOCTYPE svg PUBLIC "-//W3C//DTD SVG 1.1//EN" "http://www.w3.org/Graphics/SVG/1.1/DTD/svg11.dtd">
<svg version="1.1" xmlns="http://www.w3.org/2000/svg" xmlns:xlink="http://www.w3.org/1999/xlink" x="0px" y="0px"
	 width="35.002px" height="35px" viewBox="0 0 35.002 35" style="enable-background:new 0 0 35.002 35;" xml:space="preserve">
<g id="instagram_x5F_blue_x5F_small">
	<g>
		<g>
			<g>
				<path style="fill:#2D5D86;" d="M35.002,17.496c0,9.669-7.834,17.504-17.5,17.504S0,27.165,0,17.496C0,7.832,7.837,0,17.502,0
					S35.002,7.832,35.002,17.496z"/>
			</g>
		</g>
	</g>
	<g>
		<path style="fill:#FFFFFF;" d="M23.021,8.5H11.979c-1.918,0-3.477,1.56-3.477,3.479v11.043c0,1.918,1.559,3.478,3.477,3.478
			h11.043c1.92,0,3.48-1.56,3.48-3.478v-7.37v-3.673C26.502,10.06,24.941,8.5,23.021,8.5z M24.021,10.572h0.398v3.05l-3.041,0.01
			l-0.014-3.05L24.021,10.572z M14.933,15.652c0.575-0.801,1.512-1.319,2.567-1.319c1.059,0,1.995,0.522,2.571,1.319
			c0.374,0.52,0.598,1.157,0.598,1.846c0,1.749-1.423,3.168-3.169,3.168s-3.168-1.419-3.168-3.168
			C14.335,16.81,14.556,16.172,14.933,15.652z M24.746,23.022c0,0.953-0.772,1.722-1.725,1.722H11.979
			c-0.953,0-1.724-0.769-1.724-1.722v-7.37h2.686c-0.23,0.569-0.361,1.195-0.361,1.846c0,2.714,2.206,4.924,4.92,4.924
			c2.718,0,4.924-2.21,4.924-4.924c0-0.65-0.134-1.276-0.363-1.846h2.686V23.022z"/>
	</g>
</g>
<g id="Layer_1">
</g>
</svg>
