<?xml version="1.0" encoding="iso-8859-1"?>
<!-- Generator: Adobe Illustrator 16.0.0, SVG Export Plug-In . SVG Version: 6.00 Build 0)  -->
<!DOCTYPE svg PUBLIC "-//W3C//DTD SVG 1.1//EN" "http://www.w3.org/Graphics/SVG/1.1/DTD/svg11.dtd">
<svg version="1.1" xmlns="http://www.w3.org/2000/svg" xmlns:xlink="http://www.w3.org/1999/xlink" x="0px" y="0px"
	 width="35.002px" height="35px" viewBox="0 0 35.002 35" style="enable-background:new 0 0 35.002 35;" xml:space="preserve">
<g id="pinterest_x5F_red_x5F_small">
	<g>
		<g>
			<path style="fill:#BD081C;" d="M35.002,17.496c0,9.669-7.834,17.504-17.5,17.504C7.836,35,0,27.165,0,17.496
				C0,7.832,7.836,0,17.502,0C27.168,0,35.002,7.832,35.002,17.496z"/>
		</g>
	</g>
	<g>
		<path style="fill:#FFFFFF;" d="M26.845,15.267c0-4.369-3.565-7.639-8.153-7.639c-5.708,0-8.739,3.832-8.739,8.004
			c0,1.939,1.033,4.354,2.685,5.124c0.25,0.116,0.384,0.064,0.442-0.178c0.043-0.184,0.267-1.082,0.367-1.5
			c0.032-0.133,0.016-0.248-0.092-0.379c-0.546-0.662-0.984-1.882-0.984-3.019c0-2.917,2.209-5.739,5.972-5.739
			c3.249,0,5.524,2.214,5.524,5.381c0,3.578-1.807,6.057-4.158,6.057c-1.298,0-2.27-1.073-1.958-2.391
			c0.373-1.572,1.096-3.269,1.096-4.403c0-1.016-0.545-1.863-1.674-1.863c-1.327,0-2.393,1.373-2.393,3.212
			c0,1.172,0.396,1.964,0.396,1.964s-1.311,5.542-1.551,6.574c-0.265,1.14-0.162,2.738-0.047,3.784
			c0.026,0.29,0.081,0.853,0.222,0.905c0.16,0.06,0.501-0.344,0.684-0.576c0.539-0.878,1.345-2.318,1.644-3.467
			c0.161-0.618,0.824-3.144,0.824-3.144c0.432,0.822,1.691,1.519,3.032,1.519C23.971,23.493,26.845,19.825,26.845,15.267z"/>
	</g>
</g>
<g id="Layer_1">
</g>
</svg>
