<?xml version="1.0" encoding="UTF-8" standalone="no"?>
<svg width="38px" height="38px" viewBox="0 0 38 38" version="1.1" xmlns="http://www.w3.org/2000/svg" xmlns:xlink="http://www.w3.org/1999/xlink" xmlns:sketch="http://www.bohemiancoding.com/sketch/ns">
    <!-- Generator: Sketch 3.3 (11970) - http://www.bohemiancoding.com/sketch -->
    <title>roposo_contact_colour</title>
    <desc>Created with Sketch.</desc>
    <defs></defs>
    <g id="Page-1" stroke="none" stroke-width="1" fill="none" fill-rule="evenodd" sketch:type="MSPage">
        <g id="roposo_contact_colour" sketch:type="MSArtboardGroup">
            <g id="contact_us_page_fb_hover" sketch:type="MSLayerGroup" transform="translate(1.000000, 1.000000)">
                <g id="contact_x5F_us_x5F_page_x5F_fb_x5F_hover" sketch:type="MSShapeGroup">
                    <g id="Group">
                        <circle id="Oval" fill="#6E3992" cx="18" cy="18" r="17.499"></circle>
                        <g id="Group-Copy" transform="translate(6.500000, 6.500000)" fill="#FFFFFF">
                            <path d="M12.274446,3.61613314 C12.274446,3.61613314 17.8246677,4.38773427 18.8337725,10.2949288 L22.0575736,10.3459865 C22.0575736,10.3459865 21.4692636,1.89394246 12.2427501,0.680750232 L12.2568053,2.7814271 L12.274446,3.61613314 Z" id="Path-1644"></path>
                            <path d="M0.293671599,3.61613314 C0.293671599,3.61613314 5.84389336,4.38773427 6.85299819,10.2949288 L10.0767993,10.3459865 C10.0767993,10.3459865 9.48848923,1.89394246 0.261975716,0.680750232 L0.276030904,2.7814271 L0.293671599,3.61613314 Z" id="Path-1644-Copy" transform="translate(5.169388, 5.513368) scale(-1, 1) translate(-5.169388, -5.513368) "></path>
                            <path d="M0.304858381,15.6080943 C0.304858381,15.6080943 5.85508014,16.3796954 6.86418497,22.28689 L10.0879861,22.3379476 C10.0879861,22.3379476 9.49967601,13.8859036 0.273162498,12.6727114 L0.287217686,14.7733882 L0.304858381,15.6080943 Z" id="Path-1644-Copy-2" transform="translate(5.180574, 17.505329) scale(-1, -1) translate(-5.180574, -17.505329) "></path>
                            <path d="M12.3111615,15.5825655 C12.3111615,15.5825655 17.8613833,16.3541666 18.8704881,22.2613612 L22.0942892,22.3124188 C22.0942892,22.3124188 21.5059792,13.8603748 12.2794657,12.6471826 L12.2935208,14.7478594 L12.3111615,15.5825655 Z" id="Path-1644-Copy-3" transform="translate(17.186877, 17.479801) scale(1, -1) translate(-17.186877, -17.479801) "></path>
                        </g>
                    </g>
                </g>
                <g id="Layer_1"></g>
            </g>
        </g>
    </g>
</svg>