<?xml version="1.0" encoding="iso-8859-1"?>
<!-- Generator: Adobe Illustrator 19.1.0, SVG Export Plug-In . SVG Version: 6.00 Build 0)  -->
<svg version="1.1" xmlns="http://www.w3.org/2000/svg" xmlns:xlink="http://www.w3.org/1999/xlink" x="0px" y="0px"
	 viewBox="0 0 35.003 35" style="enable-background:new 0 0 35.003 35;" xml:space="preserve">
<g id="contact_x5F_us_x5F_page_x5F_twitter_x5F_hover">
	<g>
		<g>
			<path style="fill:#00ACED;" d="M35.003,17.496c0,9.669-7.834,17.504-17.5,17.504C7.837,35,0,27.165,0,17.496
				C0,7.832,7.837,0,17.502,0C27.168,0,35.003,7.832,35.003,17.496z"/>
		</g>
		<g>
			<path style="fill:#FFFFFF;" d="M27.788,12.15c-0.756,0.338-1.569,0.564-2.421,0.665c0.869-0.52,1.541-1.345,1.854-2.333
				c-0.817,0.484-1.717,0.835-2.678,1.024c-0.768-0.818-1.864-1.331-3.078-1.331c-2.326,0-4.215,1.888-4.215,4.216
				c0,0.329,0.035,0.65,0.109,0.962c-3.504-0.178-6.609-1.856-8.69-4.407c-0.364,0.62-0.57,1.348-0.57,2.119
				c0,1.463,0.744,2.756,1.876,3.509c-0.691-0.022-1.342-0.21-1.909-0.53c0,0.021,0,0.039,0,0.053c0,2.045,1.454,3.749,3.382,4.135
				c-0.355,0.099-0.726,0.149-1.111,0.149c-0.274,0-0.539-0.024-0.795-0.075c0.538,1.675,2.093,2.897,3.938,2.929
				c-1.441,1.13-3.26,1.805-5.236,1.805c-0.339,0-0.676-0.02-1.004-0.061c1.863,1.198,4.081,1.895,6.462,1.895
				c7.753,0,11.995-6.426,11.995-11.992c0-0.186-0.004-0.368-0.013-0.549C26.508,13.739,27.223,12.995,27.788,12.15L27.788,12.15z"
				/>
		</g>
	</g>
</g>
<g id="Layer_1">
</g>
</svg>
